<svg width="50" height="50" viewBox="0 0 50 50" fill="none" xmlns="http://www.w3.org/2000/svg">
<path d="M0 8.5C0 5.73858 2.23858 3.5 5 3.5H45C47.7614 3.5 50 5.73858 50 8.5V41.5C50 44.2614 47.7614 46.5 45 46.5H5C2.23858 46.5 0 44.2614 0 41.5V8.5Z" fill="#C08552"/>
<path d="M30 16.25C29.3368 16.2498 28.7008 15.9862 28.232 15.5171C27.7631 15.0481 27.4998 14.412 27.5 13.7488C27.5002 13.0855 27.7638 12.4496 28.2329 11.9807C28.7019 11.5119 29.338 11.2486 30.0012 11.2488C30.3296 11.2488 30.6548 11.3136 30.9581 11.4393C31.2615 11.5651 31.5371 11.7493 31.7693 11.9816C32.0014 12.2139 32.1855 12.4896 32.3111 12.793C32.4367 13.0964 32.5013 13.4216 32.5012 13.75C32.5012 14.0784 32.4364 14.4035 32.3107 14.7069C32.1849 15.0103 32.0007 15.2859 31.7684 15.518C31.5361 15.7502 31.2604 15.9343 30.957 16.0599C30.6536 16.1855 30.3284 16.2501 30 16.25ZM34.8225 12.5C34.2637 10.35 32.3225 8.75 30 8.75C27.6775 8.75 25.7363 10.35 25.1775 12.5H10V15H25.1775C25.7363 17.15 27.6775 18.75 30 18.75C32.3225 18.75 34.2637 17.15 34.8225 15H40V12.5H34.8225ZM30 38.75C29.6716 38.7499 29.3465 38.6852 29.0431 38.5594C28.7397 38.4337 28.4641 38.2494 28.232 38.0171C27.9998 37.7849 27.8157 37.5092 27.6901 37.2057C27.5645 36.9023 27.4999 36.5771 27.5 36.2488C27.5001 35.9204 27.5648 35.5952 27.6906 35.2919C27.8163 34.9885 28.0006 34.7129 28.2329 34.4807C28.4651 34.2486 28.7408 34.0645 29.0443 33.9389C29.3477 33.8133 29.6729 33.7487 30.0012 33.7488C30.6645 33.7489 31.3004 34.0125 31.7693 34.4816C32.2381 34.9507 32.5014 35.5868 32.5012 36.25C32.5011 36.9132 32.2375 37.5492 31.7684 38.018C31.2993 38.4869 30.6632 38.7502 30 38.75ZM30 31.25C27.6775 31.25 25.7363 32.85 25.1775 35H10V37.5H25.1775C25.7363 39.65 27.6775 41.25 30 41.25C32.3225 41.25 34.2637 39.65 34.8225 37.5H40V35H34.8225C34.2637 32.85 32.3225 31.25 30 31.25ZM20 27.5C19.6716 27.4999 19.3465 27.4352 19.0431 27.3094C18.7397 27.1837 18.4641 26.9994 18.232 26.7671C17.9998 26.5349 17.8157 26.2592 17.6901 25.9557C17.5645 25.6523 17.4999 25.3271 17.5 24.9987C17.5001 24.6704 17.5648 24.3452 17.6906 24.0418C17.8163 23.7385 18.0006 23.4629 18.2329 23.2307C18.4651 22.9986 18.7408 22.8145 19.0443 22.6889C19.3477 22.5633 19.6729 22.4987 20.0013 22.4987C20.6645 22.4989 21.3004 22.7625 21.7693 23.2316C22.2381 23.7007 22.5014 24.3368 22.5013 25C22.5011 25.6632 22.2375 26.2992 21.7684 26.768C21.2993 27.2369 20.6632 27.5002 20 27.5ZM20 20C17.6775 20 15.7363 21.6 15.1775 23.75H10V26.25H15.1775C15.7363 28.4 17.6775 30 20 30C22.3225 30 24.2637 28.4 24.8225 26.25H40V23.75H24.8225C24.2637 21.6 22.3225 20 20 20Z" fill="#F3E9DC"/>
</svg>
