<svg width="37" height="37" viewBox="0 0 37 37" fill="none" xmlns="http://www.w3.org/2000/svg">
<g clip-path="url(#clip0_5_252)">
<path d="M2.76775 0.101166C1.45974 0.419132 0.354077 1.56093 0.0794678 2.87616C-0.0289307 3.41093 -0.0289307 15.8117 0.0794678 16.3465C0.202319 16.9391 0.549194 17.5894 0.990015 18.0664L1.38748 18.5L0.990015 18.9336C0.549194 19.4105 0.202319 20.0609 0.0794678 20.6535C-0.0289307 21.1883 -0.0289307 33.5891 0.0794678 34.1238C0.361304 35.4752 1.52478 36.6387 2.87615 36.9205C3.41091 37.0289 15.8117 37.0289 16.3465 36.9205C16.939 36.7977 17.5894 36.4508 18.0664 36.01L18.5 35.6125L18.9336 36.01C19.4105 36.4508 20.0609 36.7977 20.6535 36.9205C20.9136 36.9783 23.0383 37 27.4103 37C32.9025 37 33.8492 36.9855 34.2177 36.8916C35.5836 36.5375 36.6459 35.4535 36.9205 34.1238C37.0289 33.5891 37.0289 21.1883 36.9205 20.6535C36.7976 20.0609 36.4508 19.4105 36.0099 18.9336L35.6125 18.5L36.0099 18.0664C36.4508 17.5894 36.7976 16.9391 36.9205 16.3465C37.0289 15.8117 37.0289 3.41093 36.9205 2.87616C36.6386 1.5248 35.4752 0.36132 34.1238 0.0794868C33.589 -0.0289116 21.1883 -0.0289116 20.6535 0.0794868C20.0609 0.202335 19.4105 0.549213 18.9336 0.990032L18.5 1.38749L18.0664 0.990032C17.5894 0.549213 16.939 0.202335 16.3465 0.0794868C15.7683 -0.0433655 3.27361 -0.0216866 2.76775 0.101166ZM16.5633 1.68378C17.0258 1.91503 17.3654 2.26191 17.5894 2.73886C17.7412 3.07128 17.7412 3.11464 17.7412 9.61132C17.7412 16.108 17.7412 16.1514 17.5894 16.4838C17.3654 16.9607 17.0258 17.3076 16.5633 17.5389L16.1513 17.7412H9.6113C3.11462 17.7412 3.07126 17.7412 2.73884 17.5894C2.26189 17.3654 1.91501 17.0258 1.68376 16.5633L1.48142 16.1514L1.45974 9.82812C1.44529 5.40546 1.45974 3.39648 1.51755 3.13632C1.67654 2.40644 2.18962 1.82831 2.91228 1.57538C3.26638 1.45976 3.69275 1.45253 9.7197 1.46698L16.1513 1.48144L16.5633 1.68378ZM34.3406 1.68378C34.8031 1.91503 35.1427 2.26191 35.3668 2.73886C35.5185 3.07128 35.5185 3.11464 35.5185 9.61132C35.5185 16.108 35.5185 16.1514 35.3668 16.4838C35.1427 16.9607 34.8031 17.3076 34.3406 17.5389L33.9287 17.7412H27.3886C20.892 17.7412 20.8486 17.7412 20.5162 17.5894C20.0392 17.3654 19.6924 17.0258 19.4611 16.5633L19.2588 16.1514L19.2371 9.82812C19.2226 5.40546 19.2371 3.39648 19.2949 3.13632C19.4539 2.40644 19.967 1.82831 20.6896 1.57538C21.0437 1.45976 21.4701 1.45253 27.497 1.46698L33.9287 1.48144L34.3406 1.68378ZM18.8613 18.1748L19.1793 18.5L18.8396 18.8469L18.5 19.1865L18.1603 18.8469L17.8207 18.5L18.1386 18.1748C18.3121 17.9941 18.4783 17.8496 18.5 17.8496C18.5217 17.8496 18.6879 17.9941 18.8613 18.1748ZM16.5633 19.4611C17.0258 19.6924 17.3654 20.0393 17.5894 20.5162C17.7412 20.8486 17.7412 20.892 17.7412 27.3887C17.7412 33.8853 17.7412 33.9287 17.5894 34.2611C17.3654 34.7381 17.0258 35.085 16.5633 35.3162L16.1513 35.5185H9.6113C3.11462 35.5185 3.07126 35.5185 2.73884 35.3668C2.26189 35.1428 1.91501 34.8031 1.68376 34.3406L1.48142 33.9287L1.45974 27.6055C1.44529 23.1828 1.45974 21.1738 1.51755 20.9137C1.67654 20.1838 2.18962 19.6057 2.91228 19.3527C3.26638 19.2371 3.69275 19.2299 9.7197 19.2443L16.1513 19.2588L16.5633 19.4611ZM34.3406 19.4611C34.8031 19.6924 35.1427 20.0393 35.3668 20.5162C35.5185 20.8486 35.5185 20.892 35.5185 27.3887C35.5185 33.8853 35.5185 33.9287 35.3668 34.2611C35.1427 34.7381 34.8031 35.085 34.3406 35.3162L33.9287 35.5185H27.3886C20.892 35.5185 20.8486 35.5185 20.5162 35.3668C20.0392 35.1428 19.6924 34.8031 19.4611 34.3406L19.2588 33.9287L19.2371 27.6055C19.2226 23.1828 19.2371 21.1738 19.2949 20.9137C19.4539 20.1838 19.967 19.6057 20.6896 19.3527C21.0437 19.2371 21.4701 19.2299 27.497 19.2443L33.9287 19.2588L34.3406 19.4611Z" fill="#5E3023"/>
<path d="M9.02598 6.12813C7.50117 6.52559 6.35938 8.01426 6.35938 9.6041C6.35938 11.1145 7.34219 12.4947 8.7875 13.015C9.10547 13.1379 9.39453 13.174 9.93652 13.1813C10.6881 13.1885 10.9482 13.1307 11.6203 12.8055L11.9961 12.6248L12.2346 12.8488C12.6754 13.268 13.0873 13.2969 13.4053 12.9211C13.6799 12.5887 13.651 12.2779 13.2969 11.8949L13.0078 11.5842L13.2246 11.1145C13.6293 10.2473 13.6799 9.27168 13.3619 8.40449C12.6971 6.61231 10.8615 5.65117 9.02598 6.12813ZM10.717 7.58789C11.7359 7.9709 12.3213 9.06211 12.0684 10.11C12.025 10.3123 11.9672 10.4785 11.9455 10.4785C11.9238 10.4785 11.7576 10.3412 11.5842 10.1822C11.2879 9.90762 11.2373 9.88594 10.9555 9.92207C10.5652 9.97988 10.334 10.24 10.334 10.6303C10.334 10.8615 10.3846 10.9699 10.6303 11.2373L10.9266 11.5625L10.7242 11.6492C10.6086 11.6926 10.2689 11.7359 9.97266 11.7359C9.51738 11.7432 9.36563 11.707 9.01875 11.5408C8.22383 11.1506 7.76133 10.3484 7.82637 9.4668C7.92031 8.01426 9.3584 7.08203 10.717 7.58789Z" fill="#5E3023"/>
<path d="M25.1773 6.07031C24.7943 6.22207 24.7871 6.28711 24.7871 8.79473C24.7871 11.4396 24.816 11.6059 25.3652 12.2346C26.4998 13.5209 28.4438 13.5354 29.6145 12.249C30.1926 11.6131 30.207 11.5408 30.207 8.79473V6.41719L29.9975 6.20762C29.7084 5.91856 29.3543 5.91856 29.0363 6.20762L28.7979 6.41719L28.7617 8.78027L28.7256 11.1434L28.4438 11.3891C27.9451 11.8227 27.2947 11.8877 26.7744 11.5625C26.2686 11.2518 26.2758 11.2807 26.2324 8.72246L26.1963 6.41719L25.9578 6.20762C25.7193 5.99082 25.4736 5.94746 25.1773 6.07031Z" fill="#5E3023"/>
<path d="M9.13438 24.0211L8.88867 24.2668V27.3453C8.88867 30.6478 8.8959 30.7129 9.25723 30.9008C9.51016 31.0308 9.7125 31.0308 9.96543 30.9008C10.3268 30.7129 10.334 30.6406 10.334 27.3814C10.334 24.6715 10.3195 24.3174 10.2111 24.1367C9.96543 23.7103 9.4957 23.6597 9.13438 24.0211Z" fill="#5E3023"/>
<path d="M25.2279 23.8766C25.0256 23.9922 24.8666 24.2523 24.8594 24.4836C24.8594 24.7004 25.04 25.04 25.199 25.1195C25.2713 25.1557 25.9 25.199 26.601 25.2207L27.8728 25.2568L26.3191 27.6416C24.5631 30.3299 24.5342 30.3877 24.9894 30.7924L25.2207 31.002H27.3887H29.5566L29.7879 30.7924C30.1059 30.5105 30.1203 30.0842 29.824 29.7951L29.6289 29.5928L28.2197 29.5566L26.8178 29.5205L28.3715 27.143C30.0697 24.527 30.1131 24.4402 29.7445 24.0139L29.5711 23.8115L27.4826 23.7971C25.8422 23.7826 25.3652 23.7971 25.2279 23.8766Z" fill="#5E3023"/>
</g>
<defs>
<clipPath id="clip0_5_252">
<rect width="37" height="37" fill="white"/>
</clipPath>
</defs>
</svg>
