<svg width="24" height="24" viewBox="0 0 24 24" fill="none" xmlns="http://www.w3.org/2000/svg">
<path d="M22.739 19.9565C23.5217 20.7391 23.5217 21.9565 22.739 22.7391C22.3477 23.1304 21.8695 23.3043 21.3477 23.3043C20.826 23.3043 20.3477 23.1304 19.9564 22.7391L11.9999 14.7826L4.04339 22.7391C3.65209 23.1304 3.17383 23.3043 2.65209 23.3043C2.13035 23.3043 1.65209 23.1304 1.26078 22.7391C0.478176 21.9565 0.478176 20.7391 1.26078 19.9565L9.21731 12L1.26078 4.04345C0.478176 3.26085 0.478176 2.04345 1.26078 1.26085C2.04339 0.478237 3.26078 0.478237 4.04339 1.26085L11.9999 9.21737L19.9564 1.26085C20.739 0.478237 21.9564 0.478237 22.739 1.26085C23.5217 2.04345 23.5217 3.26085 22.739 4.04345L14.7825 12L22.739 19.9565Z" fill="#F3E9DC"/>
</svg>
