<svg width="20" height="20" viewBox="0 0 20 20" fill="none" xmlns="http://www.w3.org/2000/svg">
<g clip-path="url(#clip0_236_294)">
<path d="M5.22844 0H4.72618C4.66209 0 4.60131 0.0134666 4.54243 0.0326017C4.24823 0.128015 4.03076 0.442105 4.03076 0.818876V1.16462V2.04958V2.51C4.03076 2.59555 4.04501 2.67638 4.06569 2.75378C4.15422 3.08622 4.41474 3.32888 4.72618 3.32888H5.22844C5.61258 3.32888 5.92385 2.9623 5.92385 2.51V2.04958V1.16462V0.818876C5.92385 0.366581 5.61258 0 5.22844 0Z" fill="#DAB49D"/>
<path d="M15.1142 0H14.6119C14.2278 0 13.9165 0.366581 13.9165 0.818876V1.16462V2.04958V2.51C13.9165 2.9623 14.2278 3.32888 14.6119 3.32888H15.1142C15.4983 3.32888 15.8096 2.9623 15.8096 2.51V2.04958V1.16462V0.818876C15.8094 0.366581 15.4982 0 15.1142 0Z" fill="#DAB49D"/>
<path d="M17.6797 2.04959H16.4362V2.51001C16.4362 3.3071 15.843 3.95553 15.1141 3.95553H14.6118C13.8829 3.95553 13.2898 3.3071 13.2898 2.51001V2.04959H6.55028V2.51001C6.55028 3.3071 5.95716 3.95553 5.22822 3.95553H4.72596C3.99699 3.95553 3.4039 3.3071 3.4039 2.51001V2.04959H2.32032C1.63008 2.04959 1.07031 2.5744 1.07031 3.22142V18.8282C1.07031 19.4765 1.63005 20 2.32032 20H17.6796C18.3704 20 18.9295 19.4763 18.9295 18.8282V3.22158C18.9297 2.57456 18.3706 2.04959 17.6797 2.04959ZM17.2922 18.2799L2.66229 18.2743V5.69194H17.2922V18.2799Z" fill="#DAB49D"/>
<path d="M11.5665 8.72409H15.4141C15.7481 8.72409 16.0182 8.39057 16.0182 7.97838C16.0182 7.56619 15.7479 7.23267 15.4141 7.23267H11.5665C11.2325 7.23267 10.9624 7.56619 10.9624 7.97838C10.9624 8.3904 11.2325 8.72409 11.5665 8.72409Z" fill="#DAB49D"/>
<path d="M11.5665 11.4177H15.4141C15.7481 11.4177 16.0182 11.0842 16.0182 10.672C16.0182 10.2599 15.7479 9.92633 15.4141 9.92633H11.5665C11.2325 9.92633 10.9624 10.2599 10.9624 10.672C10.9624 11.0842 11.2325 11.4177 11.5665 11.4177Z" fill="#DAB49D"/>
<path d="M11.5665 14.1113H15.4141C15.7481 14.1113 16.0182 13.7778 16.0182 13.3656C16.0182 12.9535 15.7479 12.6199 15.4141 12.6199H11.5665C11.2325 12.6199 10.9624 12.9535 10.9624 13.3656C10.9624 13.7778 11.2325 14.1113 11.5665 14.1113Z" fill="#DAB49D"/>
<path d="M11.5665 16.8051H15.4141C15.7481 16.8051 16.0182 16.4716 16.0182 16.0594C16.0182 15.6472 15.7479 15.3137 15.4141 15.3137H11.5665C11.2325 15.3137 10.9624 15.6472 10.9624 16.0594C10.9624 16.4716 11.2325 16.8051 11.5665 16.8051Z" fill="#DAB49D"/>
<path d="M4.75205 8.72409H8.59963C8.93361 8.72409 9.2037 8.39057 9.2037 7.97838C9.2037 7.56619 8.93345 7.23267 8.59963 7.23267H4.75205C4.41804 7.23267 4.14795 7.56619 4.14795 7.97838C4.14798 8.3904 4.41804 8.72409 4.75205 8.72409Z" fill="#DAB49D"/>
<path d="M4.75205 11.4177H8.59963C8.93361 11.4177 9.2037 11.0842 9.2037 10.672C9.2037 10.2599 8.93345 9.92633 8.59963 9.92633H4.75205C4.41804 9.92633 4.14795 10.2599 4.14795 10.672C4.14798 11.0842 4.41804 11.4177 4.75205 11.4177Z" fill="#DAB49D"/>
<path d="M4.75205 14.1113H8.59963C8.93361 14.1113 9.2037 13.7778 9.2037 13.3656C9.2037 12.9535 8.93345 12.6199 8.59963 12.6199H4.75205C4.41804 12.6199 4.14795 12.9535 4.14795 13.3656C4.14795 13.7778 4.41804 14.1113 4.75205 14.1113Z" fill="#DAB49D"/>
<path d="M4.75205 16.8051H8.59963C8.93361 16.8051 9.2037 16.4716 9.2037 16.0594C9.2037 15.6472 8.93345 15.3137 8.59963 15.3137H4.75205C4.41804 15.3137 4.14795 15.6472 4.14795 16.0594C4.14798 16.4716 4.41804 16.8051 4.75205 16.8051Z" fill="#DAB49D"/>
</g>
<defs>
<clipPath id="clip0_236_294">
<rect width="20" height="20" fill="white"/>
</clipPath>
</defs>
</svg>
